<?xml version="1.0" encoding="UTF-8" standalone="no"?>
<!-- Created with Inkscape (http://www.inkscape.org/) -->

<svg
   xmlns:dc="http://purl.org/dc/elements/1.1/"
   xmlns:cc="http://creativecommons.org/ns#"
   xmlns:rdf="http://www.w3.org/1999/02/22-rdf-syntax-ns#"
   xmlns:svg="http://www.w3.org/2000/svg"
   xmlns="http://www.w3.org/2000/svg"
   xmlns:sodipodi="http://sodipodi.sourceforge.net/DTD/sodipodi-0.dtd"
   xmlns:inkscape="http://www.inkscape.org/namespaces/inkscape"
   width="88.65625"
   height="30.546484"
   id="svg2"
   version="1.1"
   inkscape:version="0.48.1 r9760"
   sodipodi:docname="logo.svg">
  <defs
     id="defs4" />
  <sodipodi:namedview
     id="base"
     pagecolor="#ffffff"
     bordercolor="#666666"
     borderopacity="1.0"
     inkscape:pageopacity="0.0"
     inkscape:pageshadow="2"
     inkscape:zoom="1.4"
     inkscape:cx="119.13704"
     inkscape:cy="-1.2412964"
     inkscape:document-units="px"
     inkscape:current-layer="layer1"
     showgrid="false"
     inkscape:window-width="1204"
     inkscape:window-height="627"
     inkscape:window-x="0"
     inkscape:window-y="52"
     inkscape:window-maximized="0"
     fit-margin-top="0"
     fit-margin-left="0"
     fit-margin-right="0"
     fit-margin-bottom="0">
    <sodipodi:guide
       position="-136.15625,-964.63209"
       orientation="0,744.09448"
       id="guide3023" />
    <sodipodi:guide
       position="607.93823,-964.63209"
       orientation="-1052.3622,0"
       id="guide3025" />
    <sodipodi:guide
       position="607.93823,87.730111"
       orientation="0,-744.09448"
       id="guide3027" />
    <sodipodi:guide
       position="-136.15625,87.730111"
       orientation="1052.3622,0"
       id="guide3029" />
  </sodipodi:namedview>
  <metadata
     id="metadata7">
    <rdf:RDF>
      <cc:Work
         rdf:about="">
        <dc:format>image/svg+xml</dc:format>
        <dc:type
           rdf:resource="http://purl.org/dc/dcmitype/StillImage" />
        <dc:title></dc:title>
      </cc:Work>
    </rdf:RDF>
  </metadata>
  <g
     inkscape:label="レイヤー 1"
     inkscape:groupmode="layer"
     id="layer1"
     transform="translate(-136.15625,-57.183609)">
    <g
       style=""
       id="text2985">
      <path
         d="m 154.6875,67.167984 c -2e-5,-1.833318 -0.41669,-3.22915 -1.25,-4.1875 -0.82293,-0.958314 -2.02085,-1.437481 -3.59375,-1.4375 -2.08335,1.9e-5 -3.83334,0.937518 -5.25,2.8125 -1.40626,1.864598 -2.10938,4.203137 -2.10938,7.015625 0,1.791674 0.41146,3.182298 1.23438,4.171875 0.82291,0.989588 1.96874,1.484379 3.4375,1.484375 1.1979,4e-6 2.2604,-0.249996 3.1875,-0.75 0.93748,-0.510411 1.73436,-1.260411 2.39062,-2.25 0.62499,-0.947909 1.10415,-2.015616 1.4375,-3.203125 0.34374,-1.187489 0.51561,-2.406237 0.51563,-3.65625 m -3.96875,-9.984375 c 3.10415,2.4e-5 5.59894,0.864606 7.48437,2.59375 1.89581,1.718769 2.84373,3.968767 2.84375,6.75 -2e-5,1.895846 -0.29169,3.687511 -0.875,5.375 -0.57294,1.687507 -1.41148,3.203131 -2.51562,4.546875 -1.35419,1.656253 -2.95835,2.895835 -4.8125,3.71875 -1.84377,0.8125 -3.97397,1.21875 -6.39063,1.21875 -3.09375,0 -5.58333,-0.859375 -7.46875,-2.578125 -1.88541,-1.718746 -2.82812,-3.973952 -2.82812,-6.765625 0,-1.906239 0.28646,-3.703112 0.85937,-5.390625 0.57292,-1.687484 1.41667,-3.208316 2.53125,-4.5625 1.33333,-1.645813 2.92187,-2.874978 4.76563,-3.6875 1.85416,-0.812477 3.98957,-1.218726 6.40625,-1.21875"
         style="font-size:32px;font-style:oblique;font-variant:normal;font-weight:bold;font-stretch:normal;font-family:DejaVu Sans;-inkscape-font-specification:DejaVu Sans Bold Oblique"
         id="path3032" />
      <path
         d="m 175.4082,76.32775 c 1.02994,0.23699 1.83202,0.715505 2.40625,1.435547 0.57421,0.720061 0.86131,1.604174 0.86133,2.652343 -2e-5,2.260422 -0.8978,4.046878 -2.69336,5.359375 -1.78647,1.303386 -4.2474,1.955078 -7.38281,1.955078 -1.1849,0 -2.31511,-0.08659 -3.39063,-0.259765 -1.0664,-0.164063 -2.07356,-0.414713 -3.02148,-0.751953 l 0.7793,-4.060547 c 0.81119,0.473962 1.69531,0.843103 2.65234,1.107422 0.95703,0.255211 1.91406,0.382815 2.87109,0.382812 1.54036,3e-6 2.75716,-0.287106 3.65039,-0.861328 0.90234,-0.583329 1.35351,-1.362625 1.35352,-2.337891 -10e-6,-0.81119 -0.34181,-1.417309 -1.02539,-1.818359 -0.6836,-0.410148 -1.71355,-0.615225 -3.08984,-0.615234 l -2.0918,0 0.66992,-3.390625 2.21484,0 c 1.43099,1.2e-5 2.56119,-0.259753 3.39063,-0.779297 0.83853,-0.519518 1.2578,-1.22134 1.25781,-2.105469 -1e-5,-0.692692 -0.29168,-1.221338 -0.875,-1.585937 -0.57423,-0.364567 -1.41277,-0.546858 -2.51562,-0.546875 -0.77475,1.7e-5 -1.61785,0.100277 -2.5293,0.300781 -0.91146,0.200537 -1.85938,0.492204 -2.84375,0.875 l 0.75195,-3.855469 c 1.07552,-0.291646 2.13281,-0.510396 3.17188,-0.65625 1.04817,-0.145813 2.08267,-0.218729 3.10351,-0.21875 2.30598,2.1e-5 4.03775,0.382833 5.19532,1.148438 1.16665,0.765643 1.74998,1.904965 1.75,3.417968 -2e-5,1.358088 -0.40562,2.492853 -1.2168,3.404297 -0.8021,0.902356 -1.93686,1.503918 -3.4043,1.804688"
         style="font-size:28px;baseline-shift:sub;font-family:DejaVu Sans;-inkscape-font-specification:DejaVu Sans Bold Oblique"
         id="path3034" />
      <path
         d="m 186.875,57.605484 16.21875,0 -0.89063,4.546875 -10.20312,0 -0.84375,4.34375 9.60937,0 -0.90625,4.546875 -9.59375,0 -1.92187,9.890625 -6.01563,0 4.54688,-23.328125"
         style="font-size:32px;font-style:oblique;font-variant:normal;font-weight:bold;font-stretch:normal;font-family:DejaVu Sans;-inkscape-font-specification:DejaVu Sans Bold Oblique"
         id="path3036" />
      <path
         d="m 224.8125,58.339859 -0.96875,4.9375 c -1.1771,-0.583315 -2.33856,-1.015606 -3.48438,-1.296875 -1.14584,-0.291647 -2.26563,-0.437481 -3.35937,-0.4375 -1.50001,1.9e-5 -2.67189,0.234394 -3.51563,0.703125 -0.83334,0.468768 -1.25,1.119809 -1.25,1.953125 0,0.531266 0.18229,0.947932 0.54688,1.25 0.37499,0.291682 1.14061,0.57814 2.29687,0.859375 l 2.46875,0.609375 c 2.06249,0.520847 3.5729,1.276054 4.53125,2.265625 0.96874,0.979177 1.45311,2.25001 1.45313,3.8125 -2e-5,2.531255 -0.96356,4.562503 -2.89063,6.09375 -1.91668,1.53125 -4.4948,2.296875 -7.73437,2.296875 -1.51042,0 -3.01563,-0.140625 -4.51563,-0.421875 -1.48958,-0.28125 -2.94791,-0.697916 -4.375,-1.25 l 0.95313,-5.078125 c 1.38541,0.802089 2.72916,1.401047 4.03125,1.796875 1.31249,0.395837 2.60416,0.593754 3.875,0.59375 1.37499,4e-6 2.48957,-0.281246 3.34375,-0.84375 0.86457,-0.562495 1.29686,-1.281244 1.29687,-2.15625 -1e-5,-0.572909 -0.19272,-1.015617 -0.57812,-1.328125 -0.38543,-0.322908 -1.22918,-0.651033 -2.53125,-0.984375 l -2.45313,-0.609375 c -1.8125,-0.447906 -3.16146,-1.156239 -4.04687,-2.125 -0.88542,-0.968737 -1.32813,-2.223944 -1.32813,-3.765625 0,-2.427065 0.92708,-4.369772 2.78125,-5.828125 1.86458,-1.468727 4.36979,-2.203101 7.51563,-2.203125 1.2604,2.4e-5 2.55207,0.09898 3.875,0.296875 1.33331,0.187523 2.68748,0.473981 4.0625,0.859375"
         style="font-size:32px;font-style:oblique;font-variant:normal;font-weight:bold;font-stretch:normal;font-family:DejaVu Sans;-inkscape-font-specification:DejaVu Sans Bold Oblique"
         id="path3038" />
    </g>
  </g>
</svg>
